<?xml version="1.0" encoding="UTF-8" standalone="no"?>
<svg
   xmlns:dc="http://purl.org/dc/elements/1.1/"
   xmlns:cc="http://creativecommons.org/ns#"
   xmlns:rdf="http://www.w3.org/1999/02/22-rdf-syntax-ns#"
   xmlns:svg="http://www.w3.org/2000/svg"
   xmlns="http://www.w3.org/2000/svg"
   viewBox="0 0 390.78668 497.05334"
   height="497.05334"
   width="390.78668"
   xml:space="preserve"
   id="svg2"
   version="1.1"><metadata
     id="metadata8"><rdf:RDF><cc:Work
         rdf:about=""><dc:format>image/svg+xml</dc:format><dc:type
           rdf:resource="http://purl.org/dc/dcmitype/StillImage" /></cc:Work></rdf:RDF></metadata><defs
     id="defs6"><clipPath
       id="clipPath20"
       clipPathUnits="userSpaceOnUse"><path
         id="path18"
         d="M 0,3727.89 V 0 h 2930.87 v 3727.89 z" /></clipPath><clipPath
       id="clipPath30"
       clipPathUnits="userSpaceOnUse"><path
         id="path28"
         d="m 1635.68,657.148 c -36.7,14.391 -72.48,28.731 -107.69,42.731 C 1137.73,855.82 776.836,996.781 72.5586,936.34 V 723.352 C 765.094,779.93 1123.5,640.09 1510.48,485.492 c 35.18,-14.082 70.97,-28.363 107.75,-42.742 62.72,-24.699 123.29,-48.82 181.92,-72.18 428.29,-170.5 734.79,-291.9489 1049.89,-294.6989 l 8.09,-0.0703 V 290.602 c -311.78,5 -616.45,125.609 -1040.42,294.386 -58.69,23.371 -119.26,47.473 -182.03,72.16 z m 53.05,424.072 c -36.71,14.37 -72.53,28.69 -107.79,42.74 -399.86,159.77 -769.014,303.77 -1508.3814,231.48 V 1142.65 C 800.016,1210.97 1166.8,1068.06 1563.43,909.551 c 35.21,-14.039 71.05,-28.391 107.76,-42.731 62.73,-24.711 123.33,-48.8 181.95,-72.179 407.92,-162.36 705.32,-280.059 1004.99,-293.282 v 215.129 c -293.74,16.903 -587.45,133.321 -987.45,292.582 -58.65,23.31 -119.23,47.45 -181.95,72.15 z m 52.97,424.02 c -36.69,14.39 -72.5,28.68 -107.7,42.78 -409.36,163.54 -786.48,310.59 -1561.4414,226.01 V 1561.48 C 835.543,1641.93 1210.24,1495.9 1616.44,1333.64 c 35.23,-14.08 71.09,-28.39 107.79,-42.8 62.7,-24.66 123.32,-48.78 181.96,-72.12 383.88,-152.83 669.84,-265.97 951.94,-289.818 V 1144.7 c -276.46,26.93 -558.52,138.74 -934.44,288.42 -58.67,23.29 -119.21,47.48 -181.99,72.12 z m 789.55,2149.9 H 72.5586 V 1979.69 c 798.8944,93.07 1181.3914,-55.98 1596.9014,-222.01 35.21,-14.04 71.02,-28.42 107.75,-42.78 62.77,-24.68 123.33,-48.82 181.96,-72.13 359.87,-143.24 633.73,-251.64 898.96,-284.32 0,0 0,1899.53 0,1993.42 0,203.72 -90.52,303.27 -326.88,303.27 z" /></clipPath><linearGradient
       id="linearGradient40"
       spreadMethod="pad"
       gradientTransform="matrix(-1.565e-4,-3579.35,-3579.35,1.565e-4,1465.34,3655.14)"
       gradientUnits="userSpaceOnUse"
       y2="0"
       x2="1"
       y1="0"
       x1="0"><stop
         id="stop32"
         offset="0"
         style="stop-opacity:1;stop-color:#3a9fdf" /><stop
         id="stop34"
         offset="0.05874977"
         style="stop-opacity:1;stop-color:#3a9fdf" /><stop
         id="stop36"
         offset="0.386503"
         style="stop-opacity:1;stop-color:#176fc1" /><stop
         id="stop38"
         offset="1"
         style="stop-opacity:1;stop-color:#113e65" /></linearGradient><clipPath
       id="clipPath50"
       clipPathUnits="userSpaceOnUse"><path
         id="path48"
         d="M 0,3727.89 V 0 h 2930.87 v 3727.89 z" /></clipPath></defs><g
     transform="matrix(1.3333333,0,0,-1.3333333,0,497.05333)"
     id="g10"><g
       transform="scale(0.1)"
       id="g12"><g
         id="g14"><g
           clip-path="url(#clipPath20)"
           id="g16"><path
             id="path22"
             style="fill:#ffffff;fill-opacity:1;fill-rule:nonzero;stroke:none"
             d="m 2930.77,3361.96 c 0,253.62 -136.34,365.91 -388.75,365.91 -0.07,0.06 -2541.9848438,-0.07 -2541.9848438,-0.07 0,0 0.0351563,-3085.948 -0.0351562,-3085.948 126.73,11.238 241.531,18.179 350.188,18.668 452.167,2.019 763.362,-89.59 1156.652,-254.938 36.77,-15.461 363.59,-145.953 432.92,-171.863 225.09,-84.059 598.39,-250.7698 991.11,-232.29712 l -0.1,3360.53812" /></g></g><g
         id="g24"><g
           clip-path="url(#clipPath30)"
           id="g26"><path
             id="path42"
             style="fill:url(#linearGradient40);fill-opacity:1;fill-rule:nonzero;stroke:none"
             d="m 1635.68,657.148 c -36.7,14.391 -72.48,28.731 -107.69,42.731 C 1137.73,855.82 776.836,996.781 72.5586,936.34 V 723.352 C 765.094,779.93 1123.5,640.09 1510.48,485.492 c 35.18,-14.082 70.97,-28.363 107.75,-42.742 62.72,-24.699 123.29,-48.82 181.92,-72.18 428.29,-170.5 734.79,-291.9489 1049.89,-294.6989 l 8.09,-0.0703 V 290.602 c -311.78,5 -616.45,125.609 -1040.42,294.386 -58.69,23.371 -119.26,47.473 -182.03,72.16 z m 53.05,424.072 c -36.71,14.37 -72.53,28.69 -107.79,42.74 -399.86,159.77 -769.014,303.77 -1508.3814,231.48 V 1142.65 C 800.016,1210.97 1166.8,1068.06 1563.43,909.551 c 35.21,-14.039 71.05,-28.391 107.76,-42.731 62.73,-24.711 123.33,-48.8 181.95,-72.179 407.92,-162.36 705.32,-280.059 1004.99,-293.282 v 215.129 c -293.74,16.903 -587.45,133.321 -987.45,292.582 -58.65,23.31 -119.23,47.45 -181.95,72.15 z m 52.97,424.02 c -36.69,14.39 -72.5,28.68 -107.7,42.78 -409.36,163.54 -786.48,310.59 -1561.4414,226.01 V 1561.48 C 835.543,1641.93 1210.24,1495.9 1616.44,1333.64 c 35.23,-14.08 71.09,-28.39 107.79,-42.8 62.7,-24.66 123.32,-48.78 181.96,-72.12 383.88,-152.83 669.84,-265.97 951.94,-289.818 V 1144.7 c -276.46,26.93 -558.52,138.74 -934.44,288.42 -58.67,23.29 -119.21,47.48 -181.99,72.12 z m 789.55,2149.9 H 72.5586 V 1979.69 c 798.8944,93.07 1181.3914,-55.98 1596.9014,-222.01 35.21,-14.04 71.02,-28.42 107.75,-42.78 62.77,-24.68 123.33,-48.82 181.96,-72.13 359.87,-143.24 633.73,-251.64 898.96,-284.32 0,0 0,1899.53 0,1993.42 0,203.72 -90.52,303.27 -326.88,303.27" /></g></g><g
         id="g44"><g
           clip-path="url(#clipPath50)"
           id="g46"><path
             id="path52"
             style="fill:#ffffff;fill-opacity:1;fill-rule:nonzero;stroke:none"
             d="m 691.383,2877.01 c 0.062,-0.01 -150.934,0.01 -150.934,0.01 l -0.062,152.5 c 0,143.44 4.304,194.81 -48.106,209.27 l 156.086,-0.02 c 146.633,0 207.164,-59.25 207.164,-185.27 0,-99.34 -53.152,-176.49 -164.148,-176.49 z m 27.969,452.23 H 333.164 l 0.004,-72.57 c 80.488,0 75.355,-28.46 75.355,-167.61 v -699.9 H 540.25 v 304.14 c -0.477,57.22 11.297,87.28 87.461,87.43 l 65.148,-0.1 c 201.246,0 307.901,130.15 307.901,297.71 0,164.55 -119.865,250.9 -281.408,250.9" /><path
             id="path54"
             style="fill:#ffffff;fill-opacity:1;fill-rule:nonzero;stroke:none"
             d="m 2382.08,2892.21 -176.09,71.17 c -77.04,31.19 -106.64,65.26 -106.64,120.1 0,78.57 47.32,151.79 186.52,151.77 73.24,-0.05 162.53,-20.89 190.98,-104.71 h 50.88 c 0,41.05 0.08,131.26 -0.08,131.36 -56.44,42.58 -155.88,72.89 -229.93,75.1 -214.59,6.4 -349.34,-112.64 -349.34,-275.77 0,-100.82 65.17,-167.57 190.99,-219.45 l 165.71,-65.22 c 78.58,-31.13 111.04,-72.65 111.04,-133.54 0,-90.44 -51.79,-163.07 -180.53,-163.07 -116.96,0 -217.66,67.22 -248.44,181.46 h -49.46 V 2463.9 c 81.47,-44.43 186.86,-82.92 283.12,-84.69 248.74,0 346.38,133.37 346.38,286.09 0,93.4 -63.74,177.95 -185.11,226.91" /><path
             id="path56"
             style="fill:#ffffff;fill-opacity:1;fill-rule:nonzero;stroke:none"
             d="m 1509.18,3231.74 c 129.09,2.34 222.29,-28.75 251.29,-101.2 h 54.26 c 0.12,54.71 0.18,128.65 -0.12,128.87 -40.71,38.15 -152.83,77.59 -280.22,77.59 -279.85,0 -468.67,-194.23 -468.67,-492.27 0,-278.77 169.62,-465.52 450.94,-465.52 114.03,0 198.8,34.26 298.04,83.21 v 406.02 h -250.79 v -79.02 l 43.8,-0.04 c 80.49,0 75.35,-28.45 75.35,-167.61 v -97.12 c -0.26,-4.08 -0.45,-6.43 -0.54,-6.45 -25.58,-11.2 -84.37,-26.3 -149.58,-26.3 -195.49,0 -314.71,115.62 -314.71,385.49 0,216.49 119.76,351.32 290.95,354.35" /></g></g></g></g></svg>